<?xml version="1.0" encoding="UTF-8"?>
<mxfile host="app.diagrams.net" modified="2024-03-24T16:00:00.000Z" agent="AI Assistant" version="21.1.1">
  <diagram id="adjudication-process-flowchart" name="Adjudication Process">
    <mxGraphModel dx="1200" dy="800" grid="1" gridSize="10" guides="1" tooltips="1" connect="1" arrows="1" fold="1" page="1" pageScale="1" pageWidth="850" pageHeight="1100">
      <root>
        <mxCell id="0"/>
        <mxCell id="1" parent="0"/>
        
        <!-- Start Node -->
        <mxCell id="2" value="Start" style="ellipse;whiteSpace=wrap;html=1;fillColor=#d5e8d4;strokeColor=#82b366;" vertex="1" parent="1">
          <mxGeometry x="375" y="20" width="100" height="60" as="geometry"/>
        </mxCell>
        
        <!-- Supervisor Login -->
        <mxCell id="3" value="Supervisor/Adjudicator logs in" style="rounded=1;whiteSpace=wrap;html=1;fillColor=#dae8fc;strokeColor=#6c8ebf;" vertex="1" parent="1">
          <mxGeometry x="355" y="120" width="140" height="60" as="geometry"/>
        </mxCell>
        
        <!-- Navigate to Adjudication List -->
        <mxCell id="4" value="Navigate to Adjudication List" style="rounded=1;whiteSpace=wrap;html=1;fillColor=#dae8fc;strokeColor=#6c8ebf;" vertex="1" parent="1">
          <mxGeometry x="355" y="220" width="140" height="60" as="geometry"/>
        </mxCell>
        
        <!-- View Pending Violations -->
        <mxCell id="5" value="View pending violations" style="rounded=1;whiteSpace=wrap;html=1;fillColor=#dae8fc;strokeColor=#6c8ebf;" vertex="1" parent="1">
          <mxGeometry x="355" y="320" width="140" height="60" as="geometry"/>
        </mxCell>
        
        <!-- Select Violation -->
        <mxCell id="6" value="Select violation for adjudication" style="rounded=1;whiteSpace=wrap;html=1;fillColor=#dae8fc;strokeColor=#6c8ebf;" vertex="1" parent="1">
          <mxGeometry x="355" y="420" width="140" height="60" as="geometry"/>
        </mxCell>
        
        <!-- Review Details -->
        <mxCell id="7" value="Review violation details" style="rounded=1;whiteSpace=wrap;html=1;fillColor=#dae8fc;strokeColor=#6c8ebf;" vertex="1" parent="1">
          <mxGeometry x="355" y="520" width="140" height="60" as="geometry"/>
        </mxCell>
        
        <!-- Decision -->
        <mxCell id="8" value="Is violation valid?" style="rhombus;whiteSpace=wrap;html=1;fillColor=#fff2cc;strokeColor=#d6b656;" vertex="1" parent="1">
          <mxGeometry x="370" y="620" width="110" height="110" as="geometry"/>
        </mxCell>
        
        <!-- Remove Some Violations -->
        <mxCell id="9" value="Modify violation types" style="rounded=1;whiteSpace=wrap;html=1;fillColor=#dae8fc;strokeColor=#6c8ebf;" vertex="1" parent="1">
          <mxGeometry x="180" y="645" width="140" height="60" as="geometry"/>
        </mxCell>
        
        <!-- Dismiss Violation -->
        <mxCell id="10" value="Dismiss violation" style="rounded=1;whiteSpace=wrap;html=1;fillColor=#dae8fc;strokeColor=#6c8ebf;" vertex="1" parent="1">
          <mxGeometry x="560" y="645" width="140" height="60" as="geometry"/>
        </mxCell>
        
        <!-- Set Fine Amount -->
        <mxCell id="11" value="Adjust fine amount if needed" style="rounded=1;whiteSpace=wrap;html=1;fillColor=#dae8fc;strokeColor=#6c8ebf;" vertex="1" parent="1">
          <mxGeometry x="180" y="760" width="140" height="60" as="geometry"/>
        </mxCell>
        
        <!-- Add Remarks -->
        <mxCell id="12" value="Add adjudication remarks" style="rounded=1;whiteSpace=wrap;html=1;fillColor=#dae8fc;strokeColor=#6c8ebf;" vertex="1" parent="1">
          <mxGeometry x="355" y="840" width="140" height="60" as="geometry"/>
        </mxCell>
        
        <!-- Submit Adjudication -->
        <mxCell id="13" value="Submit adjudication decision" style="rounded=1;whiteSpace=wrap;html=1;fillColor=#dae8fc;strokeColor=#6c8ebf;" vertex="1" parent="1">
          <mxGeometry x="355" y="940" width="140" height="60" as="geometry"/>
        </mxCell>
        
        <!-- Update Status -->
        <mxCell id="14" value="System updates violation status to ADJUDICATED" style="rounded=1;whiteSpace=wrap;html=1;fillColor=#dae8fc;strokeColor=#6c8ebf;" vertex="1" parent="1">
          <mxGeometry x="325" y="1040" width="200" height="60" as="geometry"/>
        </mxCell>
        
        <!-- End -->
        <mxCell id="15" value="End" style="ellipse;whiteSpace=wrap;html=1;fillColor=#f8cecc;strokeColor=#b85450;" vertex="1" parent="1">
          <mxGeometry x="375" y="1140" width="100" height="60" as="geometry"/>
        </mxCell>
        
        <!-- Connections -->
        <mxCell id="16" value="" style="endArrow=classic;html=1;exitX=0.5;exitY=1;exitDx=0;exitDy=0;entryX=0.5;entryY=0;entryDx=0;entryDy=0;" edge="1" parent="1" source="2" target="3">
          <mxGeometry width="50" height="50" relative="1" as="geometry">
            <mxPoint x="400" y="430" as="sourcePoint"/>
            <mxPoint x="450" y="380" as="targetPoint"/>
          </mxGeometry>
        </mxCell>
        
        <mxCell id="17" value="" style="endArrow=classic;html=1;exitX=0.5;exitY=1;exitDx=0;exitDy=0;entryX=0.5;entryY=0;entryDx=0;entryDy=0;" edge="1" parent="1" source="3" target="4">
          <mxGeometry width="50" height="50" relative="1" as="geometry">
            <mxPoint x="400" y="430" as="sourcePoint"/>
            <mxPoint x="450" y="380" as="targetPoint"/>
          </mxGeometry>
        </mxCell>
        
        <mxCell id="18" value="" style="endArrow=classic;html=1;exitX=0.5;exitY=1;exitDx=0;exitDy=0;entryX=0.5;entryY=0;entryDx=0;entryDy=0;" edge="1" parent="1" source="4" target="5">
          <mxGeometry width="50" height="50" relative="1" as="geometry">
            <mxPoint x="400" y="430" as="sourcePoint"/>
            <mxPoint x="450" y="380" as="targetPoint"/>
          </mxGeometry>
        </mxCell>
        
        <mxCell id="19" value="" style="endArrow=classic;html=1;exitX=0.5;exitY=1;exitDx=0;exitDy=0;entryX=0.5;entryY=0;entryDx=0;entryDy=0;" edge="1" parent="1" source="5" target="6">
          <mxGeometry width="50" height="50" relative="1" as="geometry">
            <mxPoint x="400" y="430" as="sourcePoint"/>
            <mxPoint x="450" y="380" as="targetPoint"/>
          </mxGeometry>
        </mxCell>
        
        <mxCell id="20" value="" style="endArrow=classic;html=1;exitX=0.5;exitY=1;exitDx=0;exitDy=0;entryX=0.5;entryY=0;entryDx=0;entryDy=0;" edge="1" parent="1" source="6" target="7">
          <mxGeometry width="50" height="50" relative="1" as="geometry">
            <mxPoint x="400" y="430" as="sourcePoint"/>
            <mxPoint x="450" y="380" as="targetPoint"/>
          </mxGeometry>
        </mxCell>
        
        <mxCell id="21" value="" style="endArrow=classic;html=1;exitX=0.5;exitY=1;exitDx=0;exitDy=0;entryX=0.5;entryY=0;entryDx=0;entryDy=0;" edge="1" parent="1" source="7" target="8">
          <mxGeometry width="50" height="50" relative="1" as="geometry">
            <mxPoint x="400" y="430" as="sourcePoint"/>
            <mxPoint x="450" y="380" as="targetPoint"/>
          </mxGeometry>
        </mxCell>
        
        <mxCell id="22" value="Partially Valid" style="endArrow=classic;html=1;exitX=0;exitY=0.5;exitDx=0;exitDy=0;entryX=1;entryY=0.5;entryDx=0;entryDy=0;" edge="1" parent="1" source="8" target="9">
          <mxGeometry width="50" height="50" relative="1" as="geometry">
            <mxPoint x="400" y="430" as="sourcePoint"/>
            <mxPoint x="450" y="380" as="targetPoint"/>
          </mxGeometry>
        </mxCell>
        
        <mxCell id="23" value="Not Valid" style="endArrow=classic;html=1;exitX=1;exitY=0.5;exitDx=0;exitDy=0;entryX=0;entryY=0.5;entryDx=0;entryDy=0;" edge="1" parent="1" source="8" target="10">
          <mxGeometry width="50" height="50" relative="1" as="geometry">
            <mxPoint x="400" y="430" as="sourcePoint"/>
            <mxPoint x="450" y="380" as="targetPoint"/>
          </mxGeometry>
        </mxCell>
        
        <mxCell id="24" value="" style="endArrow=classic;html=1;exitX=0.5;exitY=1;exitDx=0;exitDy=0;entryX=0.5;entryY=0;entryDx=0;entryDy=0;" edge="1" parent="1" source="9" target="11">
          <mxGeometry width="50" height="50" relative="1" as="geometry">
            <mxPoint x="400" y="730" as="sourcePoint"/>
            <mxPoint x="450" y="680" as="targetPoint"/>
          </mxGeometry>
        </mxCell>
        
        <mxCell id="25" value="" style="endArrow=classic;html=1;exitX=0.5;exitY=1;exitDx=0;exitDy=0;entryX=0;entryY=0.5;entryDx=0;entryDy=0;" edge="1" parent="1" source="11" target="12">
          <mxGeometry width="50" height="50" relative="1" as="geometry">
            <mxPoint x="400" y="730" as="sourcePoint"/>
            <mxPoint x="450" y="680" as="targetPoint"/>
            <Array as="points">
              <mxPoint x="250" y="870"/>
            </Array>
          </mxGeometry>
        </mxCell>
        
        <mxCell id="26" value="Fully Valid" style="endArrow=classic;html=1;exitX=0.5;exitY=1;exitDx=0;exitDy=0;entryX=0.5;entryY=0;entryDx=0;entryDy=0;" edge="1" parent="1" source="8" target="12">
          <mxGeometry width="50" height="50" relative="1" as="geometry">
            <mxPoint x="400" y="730" as="sourcePoint"/>
            <mxPoint x="450" y="680" as="targetPoint"/>
            <Array as="points">
              <mxPoint x="425" y="780"/>
            </Array>
          </mxGeometry>
        </mxCell>
        
        <mxCell id="27" value="" style="endArrow=classic;html=1;exitX=0.5;exitY=1;exitDx=0;exitDy=0;entryX=1;entryY=0.5;entryDx=0;entryDy=0;" edge="1" parent="1" source="10" target="12">
          <mxGeometry width="50" height="50" relative="1" as="geometry">
            <mxPoint x="400" y="730" as="sourcePoint"/>
            <mxPoint x="450" y="680" as="targetPoint"/>
            <Array as="points">
              <mxPoint x="630" y="870"/>
            </Array>
          </mxGeometry>
        </mxCell>
        
        <mxCell id="28" value="" style="endArrow=classic;html=1;exitX=0.5;exitY=1;exitDx=0;exitDy=0;entryX=0.5;entryY=0;entryDx=0;entryDy=0;" edge="1" parent="1" source="12" target="13">
          <mxGeometry width="50" height="50" relative="1" as="geometry">
            <mxPoint x="400" y="730" as="sourcePoint"/>
            <mxPoint x="450" y="680" as="targetPoint"/>
          </mxGeometry>
        </mxCell>
        
        <mxCell id="29" value="" style="endArrow=classic;html=1;exitX=0.5;exitY=1;exitDx=0;exitDy=0;entryX=0.5;entryY=0;entryDx=0;entryDy=0;" edge="1" parent="1" source="13" target="14">
          <mxGeometry width="50" height="50" relative="1" as="geometry">
            <mxPoint x="400" y="730" as="sourcePoint"/>
            <mxPoint x="450" y="680" as="targetPoint"/>
          </mxGeometry>
        </mxCell>
        
        <mxCell id="30" value="" style="endArrow=classic;html=1;exitX=0.5;exitY=1;exitDx=0;exitDy=0;entryX=0.5;entryY=0;entryDx=0;entryDy=0;" edge="1" parent="1" source="14" target="15">
          <mxGeometry width="50" height="50" relative="1" as="geometry">
            <mxPoint x="400" y="970" as="sourcePoint"/>
            <mxPoint x="450" y="920" as="targetPoint"/>
          </mxGeometry>
        </mxCell>
      </root>
    </mxGraphModel>
  </diagram>
</mxfile> 